<svg version="1" xmlns="http://www.w3.org/2000/svg" width="346.667" height="346.667" viewBox="0 0 260.000000 260.000000">
  <path d="M137.5 49.5c-6 1.3-13.8 4.1-18.5 6.7-9.6 5.1-21.7 17-25.9 25.3-1.8 3.6-2.7 4.5-4 3.9C76.7 80 65 79.6 54.7 84.3c-9.6 4.4-18.7 15.4-20.6 25.1-.5 2.4-1.8 3.7-5.6 5.8-6.5 3.5-10 6.2-15.3 11.8-4.5 4.7-10.7 16.1-11.9 22-1.4 6.5-.8 21.2 1.1 26.8 5.4 16 17.7 28.2 33.5 33.4 6.5 2.1 7.8 2.1 94.1 2.2 69 .2 88.7-.1 93.3-1.1 22.4-5 37.9-25.4 36.4-47.7-1.6-22-16.8-39-38.7-43.1l-3.5-.6-.2-8.2c-.5-26.7-19.9-51.4-46.8-59.7-8.8-2.7-24.5-3.4-33-1.5z" />
</svg>
