<?xml version="1.0" encoding="UTF-8"?>
<svg width="521px" height="108px" viewBox="0 0 521 108" version="1.1" xmlns="http://www.w3.org/2000/svg" xmlns:xlink="http://www.w3.org/1999/xlink">
    <!-- Generator: Sketch 44.1 (41455) - http://www.bohemiancoding.com/sketch -->
    <title>Logo</title>
    <desc>Created with Sketch.</desc>
    <defs>
        <linearGradient x1="0%" y1="100%" x2="100%" y2="0%" id="linearGradient-1">
            <stop stop-color="#B480F2" offset="0%"></stop>
            <stop stop-color="#5F8CE5" offset="100%"></stop>
        </linearGradient>
    </defs>
    <g id="Logos" stroke="none" stroke-width="1" fill="none" fill-rule="evenodd">
        <g id="Option-3" transform="translate(-240.000000, -107.000000)">
            <g id="Logo">
                <g transform="translate(240.000000, 105.000000)">
                    <path d="M199.06118,51.4121739 C199.06118,49.0330316 198.142823,46.9654746 196.306082,45.209441 C194.469341,43.4534074 191.883813,42.5754037 188.54942,42.5754037 C185.723664,42.5754037 183.491351,43.156019 181.852412,44.3172671 C180.213474,45.4785151 179.394017,47.0504249 179.394017,49.0330435 C179.394017,50.0526759 179.591817,50.9731636 179.987422,51.7945342 C180.383028,52.6159047 181.075328,53.3522949 182.064343,54.0037267 C183.053357,54.6551585 184.353186,55.2357738 185.963867,55.7455901 C187.574548,56.2554063 189.62319,56.7368921 192.109855,57.1900621 C198.326519,58.322987 203.073717,60.2206078 206.351594,62.8829814 C209.629471,65.5453549 211.268385,69.48221 211.268385,74.6936646 L211.268385,75.7132919 C211.268385,78.488958 210.773885,80.9955168 209.784871,83.2330435 C208.795856,85.4705702 207.368871,87.3823523 205.503872,88.9684472 C203.638873,90.5545421 201.378302,91.7724181 198.722091,92.6221118 C196.065881,93.4718055 193.070624,93.896646 189.736232,93.896646 C185.836689,93.896646 182.403447,93.3443533 179.436403,92.2397516 C176.469359,91.1351498 173.996859,89.6057241 172.01883,87.6514286 C170.040801,85.6971331 168.543173,83.4029945 167.525901,80.7689441 C166.508628,78.1348937 166,75.2601398 166,72.1445963 L166,69.595528 L177.189938,69.595528 L177.189938,71.6347826 C177.189938,75.2034961 178.221323,78.0499273 180.284125,80.1741615 C182.346927,82.2983957 185.554112,83.3604969 189.905777,83.3604969 C193.296684,83.3604969 195.811569,82.6241067 197.450507,81.1513043 C199.089446,79.678502 199.908903,77.9224947 199.908903,75.8832298 C199.908903,74.9202436 199.73936,73.9997559 199.400269,73.1217391 C199.061179,72.2437223 198.467779,71.4506868 197.620052,70.7426087 C196.772325,70.0345306 195.613783,69.3972699 194.144389,68.8308075 C192.674996,68.264345 190.810025,67.7828591 188.54942,67.3863354 C185.554119,66.8765192 182.813177,66.2109358 180.326511,65.3895652 C177.839846,64.5681947 175.678175,63.4777708 173.841434,62.1182609 C172.004692,60.758751 170.577707,59.0593891 169.560435,57.0201242 C168.543163,54.9808594 168.034534,52.4884619 168.034534,49.5428571 L168.034534,49.0330435 C168.034534,46.5972549 168.529034,44.3456004 169.518049,42.2780124 C170.507063,40.2104244 171.891663,38.4119331 173.671889,36.8824845 C175.452116,35.3530358 177.599658,34.1634825 180.114581,33.3137888 C182.629504,32.4640951 185.441089,32.0392547 188.54942,32.0392547 C192.053358,32.0392547 195.161643,32.5349019 197.874369,33.5262112 C200.587095,34.5175205 202.861794,35.8628486 204.698535,37.562236 C206.535277,39.2616234 207.919877,41.2158896 208.852376,43.4250932 C209.784876,45.6342968 210.251118,47.956758 210.251118,50.3925466 L210.251118,53.4514286 L199.06118,53.4514286 L199.06118,51.4121739 Z M235.513251,66.0268323 L237.547785,66.0268323 L248.737723,50.5624845 L260.436295,50.5624845 L260.436295,51.0722981 L246.872733,70.3602484 L246.872733,71.8896894 L261.792651,92.1972671 L261.792651,92.7070807 L249.585446,92.7070807 L237.547785,76.2231056 L235.513251,76.2231056 L235.513251,92.7070807 L224.831947,92.7070807 L224.831947,33.2288199 L235.513251,33.2288199 L235.513251,66.0268323 Z M301.805156,50.5624845 L312.48646,50.5624845 L312.48646,103.073292 C312.48646,104.999264 311.878932,106.585335 310.663857,107.831553 C309.448782,109.07777 307.880511,109.70087 305.958997,109.70087 L280.951181,109.70087 L280.951181,99.5045963 L299.516305,99.5045963 C301.042213,99.5045963 301.805156,98.6549153 301.805156,96.955528 L301.805156,86.5893168 L300.279255,86.5893168 C298.414256,91.4608939 294.401743,93.896646 288.241595,93.896646 C286.150535,93.896646 284.200793,93.5567736 282.392309,92.8770186 C280.583825,92.1972637 279.001426,91.1493239 277.645063,89.7331677 C276.2887,88.3170116 275.229057,86.5468429 274.466103,84.4226087 C273.703149,82.2983745 273.321678,79.7918157 273.321678,76.9028571 L273.321678,50.5624845 L284.002982,50.5624845 L284.002982,74.6936646 C284.002982,77.6959156 284.70941,80.0325382 286.122288,81.7036025 C287.535167,83.3746667 289.654452,84.2101863 292.480208,84.2101863 C295.70157,84.2101863 298.061041,83.1764079 299.558691,81.1088199 C301.056342,79.0412319 301.805156,76.2231234 301.805156,72.6544099 L301.805156,50.5624845 Z M366.232072,77.2427329 C365.271315,82.2276026 362.996615,86.2494257 359.407905,89.308323 C355.819195,92.3672203 351.02961,93.896646 345.039007,93.896646 C341.930676,93.896646 339.034319,93.4151601 336.349851,92.4521739 C333.665383,91.4891877 331.334169,90.1013755 329.35614,88.2886957 C327.37811,86.4760158 325.823968,84.2385226 324.693666,81.5761491 C323.563363,78.9137755 322.99822,75.8832468 322.99822,72.484472 L322.99822,71.4648447 C322.99822,68.06607 323.563363,65.0072186 324.693666,62.2881988 C325.823968,59.569179 327.392239,57.2467177 329.398526,55.3207453 C331.404813,53.394773 333.750155,51.9219927 336.434623,50.9023602 C339.119091,49.8827278 341.987191,49.3729193 345.039007,49.3729193 C350.91658,49.3729193 355.677907,50.902345 359.323133,53.9612422 C362.968358,57.0201395 365.271315,61.0419627 366.232072,66.0268323 L355.720312,68.7458385 C355.381221,66.2534037 354.30745,64.1008786 352.498966,62.2881988 C350.690482,60.4755189 348.14734,59.5691925 344.869463,59.5691925 C343.343554,59.5691925 341.902441,59.8524195 340.546078,60.418882 C339.189715,60.9853444 338.002915,61.7925413 336.985643,62.8404969 C335.968371,63.8884524 335.163042,65.1629739 334.569634,66.6640994 C333.976225,68.1652249 333.679525,69.8504254 333.679525,71.7197516 L333.679525,72.2295652 C333.679525,74.0988913 333.976225,75.7557692 334.569634,77.2002484 C335.163042,78.6447277 335.968371,79.8484424 336.985643,80.8114286 C338.002915,81.7744148 339.189715,82.4966436 340.546078,82.9781366 C341.902441,83.4596297 343.343554,83.7003727 344.869463,83.7003727 C348.14734,83.7003727 350.648096,82.8790144 352.371808,81.2362733 C354.095519,79.5935322 355.211676,77.3843617 355.720312,74.6086957 L366.232072,77.2427329 Z M418.282238,72.1445963 C418.282238,75.6566635 417.688838,78.757999 416.50202,81.4486957 C415.315203,84.1393923 413.704546,86.4052082 411.670001,88.2462112 C409.635457,90.0872142 407.304243,91.4891877 404.67629,92.4521739 C402.048337,93.4151601 399.293266,93.896646 396.410995,93.896646 C393.528724,93.896646 390.773653,93.4151601 388.1457,92.4521739 C385.517747,91.4891877 383.186533,90.0872142 381.151989,88.2462112 C379.117445,86.4052082 377.506788,84.1393923 376.31997,81.4486957 C375.133153,78.757999 374.539753,75.6566635 374.539753,72.1445963 L374.539753,71.1249689 C374.539753,67.6695479 375.133153,64.5965352 376.31997,61.9058385 C377.506788,59.2151418 379.117445,56.9351646 381.151989,55.0658385 C383.186533,53.1965124 385.517747,51.7803775 388.1457,50.8173913 C390.773653,49.8544051 393.528724,49.3729193 396.410995,49.3729193 C399.293266,49.3729193 402.048337,49.8544051 404.67629,50.8173913 C407.304243,51.7803775 409.635457,53.1965124 411.670001,55.0658385 C413.704546,56.9351646 415.315203,59.2151418 416.50202,61.9058385 C417.688838,64.5965352 418.282238,67.6695479 418.282238,71.1249689 L418.282238,72.1445963 Z M396.410995,83.7003727 C397.936903,83.7003727 399.378017,83.4454684 400.73438,82.9356522 C402.090743,82.425836 403.277543,81.6894458 404.294815,80.7264596 C405.312087,79.7634734 406.117416,78.5880815 406.710824,77.2002484 C407.304233,75.8124154 407.600933,74.2405057 407.600933,72.484472 L407.600933,70.7850932 C407.600933,69.0290595 407.304233,67.4571498 406.710824,66.0693168 C406.117416,64.6814837 405.312087,63.5060918 404.294815,62.5431056 C403.277543,61.5801194 402.090743,60.8437293 400.73438,60.333913 C399.378017,59.8240968 397.936903,59.5691925 396.410995,59.5691925 C394.885087,59.5691925 393.443973,59.8240968 392.08761,60.333913 C390.731247,60.8437293 389.544447,61.5801194 388.527175,62.5431056 C387.509903,63.5060918 386.704575,64.6814837 386.111166,66.0693168 C385.517757,67.4571498 385.221057,69.0290595 385.221057,70.7850932 L385.221057,72.484472 C385.221057,74.2405057 385.517757,75.8124154 386.111166,77.2002484 C386.704575,78.5880815 387.509903,79.7634734 388.527175,80.7264596 C389.544447,81.6894458 390.731247,82.425836 392.08761,82.9356522 C393.443973,83.4454684 394.885087,83.7003727 396.410995,83.7003727 Z M429.726492,82.5108075 L443.968231,82.5108075 L443.968231,60.7587578 L430.743759,60.7587578 L430.743759,50.5624845 L454.649536,50.5624845 L454.649536,82.5108075 L466.856741,82.5108075 L466.856741,92.7070807 L429.726492,92.7070807 L429.726492,82.5108075 Z M457.277476,38.0720497 C457.277476,39.2049746 457.065547,40.2670758 456.641684,41.2583851 C456.217821,42.2496944 455.638549,43.0993753 454.903853,43.8074534 C454.169156,44.5155315 453.307313,45.0819855 452.318299,45.5068323 C451.329284,45.9316791 450.297899,46.1440994 449.224111,46.1440994 C448.093809,46.1440994 447.048295,45.9316791 446.087538,45.5068323 C445.126781,45.0819855 444.279067,44.5155315 443.54437,43.8074534 C442.809674,43.0993753 442.230402,42.2496944 441.806539,41.2583851 C441.382675,40.2670758 441.170747,39.2049746 441.170747,38.0720497 C441.170747,36.9391248 441.382675,35.8770236 441.806539,34.8857143 C442.230402,33.894405 442.809674,33.044724 443.54437,32.336646 C444.279067,31.6285679 445.126781,31.0621139 446.087538,30.6372671 C447.048295,30.2124202 448.093809,30 449.224111,30 C450.297899,30 451.329284,30.2124202 452.318299,30.6372671 C453.307313,31.0621139 454.169156,31.6285679 454.903853,32.336646 C455.638549,33.044724 456.217821,33.894405 456.641684,34.8857143 C457.065547,35.8770236 457.277476,36.9391248 457.277476,38.0720497 Z M491.525468,92.7070807 L480.844163,92.7070807 L480.844163,50.5624845 L491.525468,50.5624845 L491.525468,56.8501863 L493.051368,56.8501863 C494.012125,54.471044 495.566268,52.6300686 497.713843,51.327205 C499.861417,50.0243413 502.376302,49.3729193 505.258573,49.3729193 C507.293118,49.3729193 509.200475,49.6986303 510.980701,50.3500621 C512.760927,51.0014939 514.329198,52.0069497 515.685561,53.3664596 C517.041924,54.7259695 518.101567,56.4536541 518.864521,58.5495652 C519.627475,60.6454763 520.008946,63.1378738 520.008946,66.0268323 L520.008946,92.7070807 L509.327642,92.7070807 L509.327642,68.7458385 C509.327642,65.7435875 508.607085,63.3786422 507.165949,61.6509317 C505.724814,59.9232212 503.647914,59.0593789 500.935188,59.0593789 C497.770342,59.0593789 495.410871,60.1214801 493.856705,62.2457143 C492.302539,64.3699485 491.525468,67.2163797 491.525468,70.7850932 L491.525468,92.7070807 Z" id="Skycoin" fill="#4A4A4A"></path>
                    <path d="M35.5,108.999703 C15.8938914,108.999703 0,93.0312365 0,73.3331351 C0,53.6350338 15.8938914,37.6665676 35.5,37.6665676 C35.5,17.9684662 51.3938914,2 71,2 C90.6061086,2 106.5,17.9684662 106.5,37.6665676 C126.106109,37.6665676 142,53.6350338 142,73.3331351 C142,93.0312365 126.106109,108.999703 106.5,108.999703 L35.5,108.999703 Z" id="Combined-Shape" fill="url(#linearGradient-1)"></path>
                </g>
            </g>
        </g>
    </g>
</svg>