<?xml version="1.0" encoding="UTF-8"?>
<svg width="521px" height="106px" viewBox="0 0 521 106" version="1.1" xmlns="http://www.w3.org/2000/svg" xmlns:xlink="http://www.w3.org/1999/xlink">
    <!-- Generator: Sketch 44.1 (41455) - http://www.bohemiancoding.com/sketch -->
    <title>Logo White</title>
    <desc>Created with Sketch.</desc>
    <defs></defs>
    <g id="Page-1" stroke="none" stroke-width="1" fill="none" fill-rule="evenodd">
        <g id="Logo-White" fill="#FFFFFF">
            <path d="M199.106185,47.1637267 C199.106185,44.7845844 198.187828,42.7170274 196.351087,40.9609938 C194.514345,39.2049602 191.928817,38.3269565 188.594425,38.3269565 C185.768669,38.3269565 183.536355,38.9075718 181.897417,40.0688199 C180.258478,41.2300679 179.439021,42.8019777 179.439021,44.7845963 C179.439021,45.8042287 179.636821,46.7247164 180.032427,47.546087 C180.428033,48.3674575 181.120333,49.1038477 182.109347,49.7552795 C183.098362,50.4067113 184.39819,50.9873266 186.008871,51.4971429 C187.619552,52.0069591 189.668195,52.4884449 192.15486,52.9416149 C198.371523,54.0745398 203.118722,55.9721606 206.396599,58.6345342 C209.674476,61.2969077 211.31339,65.2337628 211.31339,70.4452174 L211.31339,71.4648447 C211.31339,74.2405108 210.81889,76.7470696 209.829875,78.9845963 C208.840861,81.222123 207.413875,83.1339051 205.548876,84.72 C203.683878,86.3060949 201.423307,87.5239709 198.767096,88.3736646 C196.110885,89.2233583 193.115629,89.6481988 189.781237,89.6481988 C185.881693,89.6481988 182.448451,89.0959061 179.481407,87.9913043 C176.514364,86.8867026 174.041864,85.3572769 172.063835,83.4029814 C170.085806,81.4486859 168.588177,79.1545473 167.570905,76.5204969 C166.553633,73.8864465 166.045005,71.0116926 166.045005,67.8961491 L166.045005,65.3470807 L177.234943,65.3470807 L177.234943,67.3863354 C177.234943,70.9550489 178.266328,73.8014801 180.32913,75.9257143 C182.391932,78.0499485 185.599117,79.1120497 189.950781,79.1120497 C193.341688,79.1120497 195.856574,78.3756595 197.495512,76.9028571 C199.134451,75.4300547 199.953908,73.6740475 199.953908,71.6347826 C199.953908,70.6717964 199.784365,69.7513087 199.445274,68.8732919 C199.106183,67.9952751 198.512783,67.2022396 197.665057,66.4941615 C196.81733,65.7860834 195.658787,65.1488227 194.189394,64.5823602 C192.720001,64.0158978 190.85503,63.5344119 188.594425,63.1378882 C185.599124,62.628072 182.858181,61.9624886 180.371516,61.141118 C177.884851,60.3197474 175.72318,59.2293236 173.886438,57.8698137 C172.049697,56.5103038 170.622712,54.8109419 169.605439,52.771677 C168.588167,50.7324122 168.079539,48.2400147 168.079539,45.2944099 L168.079539,44.7845963 C168.079539,42.3488077 168.574039,40.0971532 169.563053,38.0295652 C170.552068,35.9619772 171.936668,34.1634859 173.716894,32.6340373 C175.49712,31.1045886 177.644663,29.9150353 180.159585,29.0653416 C182.674508,28.2156479 185.486093,27.7908075 188.594425,27.7908075 C192.098363,27.7908075 195.206648,28.2864547 197.919373,29.277764 C200.632099,30.2690733 202.906799,31.6144014 204.74354,33.3137888 C206.580281,35.0131762 207.964881,36.9674424 208.897381,39.176646 C209.82988,41.3858496 210.296123,43.7083108 210.296123,46.1440994 L210.296123,49.2029814 L199.106185,49.2029814 L199.106185,47.1637267 Z M235.558256,61.7783851 L237.59279,61.7783851 L248.782728,46.3140373 L260.481299,46.3140373 L260.481299,46.8238509 L246.917738,66.1118012 L246.917738,67.6412422 L261.837655,87.9488199 L261.837655,88.4586335 L249.63045,88.4586335 L237.59279,71.9746584 L235.558256,71.9746584 L235.558256,88.4586335 L224.876951,88.4586335 L224.876951,28.9803727 L235.558256,28.9803727 L235.558256,61.7783851 Z M301.850161,46.3140373 L312.531465,46.3140373 L312.531465,98.8248447 C312.531465,100.750817 311.923937,102.336888 310.708862,103.583106 C309.493786,104.829323 307.925515,105.452422 306.004001,105.452422 L280.996185,105.452422 L280.996185,95.2561491 L299.56131,95.2561491 C301.087218,95.2561491 301.850161,94.4064681 301.850161,92.7070807 L301.850161,82.3408696 L300.32426,82.3408696 C298.459261,87.2124467 294.446748,89.6481988 288.2866,89.6481988 C286.19554,89.6481988 284.245798,89.3083264 282.437314,88.6285714 C280.62883,87.9488165 279.04643,86.9008766 277.690067,85.4847205 C276.333704,84.0685643 275.274062,82.2983957 274.511108,80.1741615 C273.748154,78.0499273 273.366682,75.5433685 273.366682,72.6544099 L273.366682,46.3140373 L284.047987,46.3140373 L284.047987,70.4452174 C284.047987,73.4474684 284.754415,75.784091 286.167293,77.4551553 C287.580171,79.1262195 289.699456,79.9617391 292.525212,79.9617391 C295.746574,79.9617391 298.106045,78.9279606 299.603696,76.8603727 C301.101347,74.7927847 301.850161,71.9746762 301.850161,68.4059627 L301.850161,46.3140373 Z M366.277076,72.9942857 C365.316319,77.9791554 363.04162,82.0009785 359.452909,85.0598758 C355.864199,88.1187731 351.074615,89.6481988 345.084012,89.6481988 C341.97568,89.6481988 339.079324,89.1667129 336.394856,88.2037267 C333.710387,87.2407405 331.379174,85.8529283 329.401144,84.0402484 C327.423115,82.2275686 325.868973,79.9900754 324.73867,77.3277019 C323.608368,74.6653283 323.043225,71.6347996 323.043225,68.2360248 L323.043225,67.2163975 C323.043225,63.8176228 323.608368,60.7587714 324.73867,58.0397516 C325.868973,55.3207317 327.437244,52.9982705 329.44353,51.0722981 C331.449817,49.1463258 333.79516,47.6735455 336.479628,46.653913 C339.164096,45.6342806 342.032195,45.124472 345.084012,45.124472 C350.961584,45.124472 355.722912,46.6538977 359.368137,49.712795 C363.013363,52.7716923 365.316319,56.7935154 366.277076,61.7783851 L355.765316,64.4973913 C355.426226,62.0049565 354.352454,59.8524314 352.543971,58.0397516 C350.735487,56.2270717 348.192344,55.3207453 344.914467,55.3207453 C343.388559,55.3207453 341.947445,55.6039723 340.591082,56.1704348 C339.234719,56.7368972 338.04792,57.5440941 337.030647,58.5920497 C336.013375,59.6400052 335.208047,60.9145267 334.614638,62.4156522 C334.021229,63.9167777 333.724529,65.6019782 333.724529,67.4713043 L333.724529,67.981118 C333.724529,69.8504441 334.021229,71.507322 334.614638,72.9518012 C335.208047,74.3962805 336.013375,75.5999952 337.030647,76.5629814 C338.04792,77.5259675 339.234719,78.2481964 340.591082,78.7296894 C341.947445,79.2111825 343.388559,79.4519255 344.914467,79.4519255 C348.192344,79.4519255 350.693101,78.6305672 352.416812,76.9878261 C354.140523,75.345085 355.25668,73.1359145 355.765316,70.3602484 L366.277076,72.9942857 Z M418.327242,67.8961491 C418.327242,71.4082163 417.733842,74.5095518 416.547025,77.2002484 C415.360207,79.8909451 413.74955,82.156761 411.715006,83.997764 C409.680462,85.838767 407.349248,87.2407405 404.721295,88.2037267 C402.093342,89.1667129 399.338271,89.6481988 396.456,89.6481988 C393.573729,89.6481988 390.818658,89.1667129 388.190705,88.2037267 C385.562752,87.2407405 383.231538,85.838767 381.196993,83.997764 C379.162449,82.156761 377.551792,79.8909451 376.364975,77.2002484 C375.178157,74.5095518 374.584757,71.4082163 374.584757,67.8961491 L374.584757,66.8765217 C374.584757,63.4211007 375.178157,60.348088 376.364975,57.6573913 C377.551792,54.9666946 379.162449,52.6867174 381.196993,50.8173913 C383.231538,48.9480652 385.562752,47.5319303 388.190705,46.5689441 C390.818658,45.6059579 393.573729,45.124472 396.456,45.124472 C399.338271,45.124472 402.093342,45.6059579 404.721295,46.5689441 C407.349248,47.5319303 409.680462,48.9480652 411.715006,50.8173913 C413.74955,52.6867174 415.360207,54.9666946 416.547025,57.6573913 C417.733842,60.348088 418.327242,63.4211007 418.327242,66.8765217 L418.327242,67.8961491 Z M396.456,79.4519255 C397.981908,79.4519255 399.423022,79.1970212 400.779385,78.687205 C402.135748,78.1773888 403.322548,77.4409986 404.33982,76.4780124 C405.357092,75.5150262 406.16242,74.3396343 406.755829,72.9518012 C407.349238,71.5639682 407.645938,69.9920585 407.645938,68.2360248 L407.645938,66.536646 C407.645938,64.7806123 407.349238,63.2087026 406.755829,61.8208696 C406.16242,60.4330365 405.357092,59.2576446 404.33982,58.2946584 C403.322548,57.3316722 402.135748,56.5952821 400.779385,56.0854658 C399.423022,55.5756496 397.981908,55.3207453 396.456,55.3207453 C394.930092,55.3207453 393.488978,55.5756496 392.132615,56.0854658 C390.776252,56.5952821 389.589452,57.3316722 388.57218,58.2946584 C387.554908,59.2576446 386.749579,60.4330365 386.156171,61.8208696 C385.562762,63.2087026 385.266062,64.7806123 385.266062,66.536646 L385.266062,68.2360248 C385.266062,69.9920585 385.562762,71.5639682 386.156171,72.9518012 C386.749579,74.3396343 387.554908,75.5150262 388.57218,76.4780124 C389.589452,77.4409986 390.776252,78.1773888 392.132615,78.687205 C393.488978,79.1970212 394.930092,79.4519255 396.456,79.4519255 Z M429.771497,78.2623602 L444.013236,78.2623602 L444.013236,56.5103106 L430.788764,56.5103106 L430.788764,46.3140373 L454.69454,46.3140373 L454.69454,78.2623602 L466.901746,78.2623602 L466.901746,88.4586335 L429.771497,88.4586335 L429.771497,78.2623602 Z M457.32248,33.8236025 C457.32248,34.9565274 457.110552,36.0186286 456.686689,37.0099379 C456.262825,38.0012472 455.683554,38.8509281 454.948857,39.5590062 C454.214161,40.2670843 453.352318,40.8335382 452.363303,41.2583851 C451.374289,41.6832319 450.342903,41.8956522 449.269116,41.8956522 C448.138814,41.8956522 447.0933,41.6832319 446.132543,41.2583851 C445.171785,40.8335382 444.324071,40.2670843 443.589375,39.5590062 C442.854678,38.8509281 442.275407,38.0012472 441.851544,37.0099379 C441.42768,36.0186286 441.215752,34.9565274 441.215752,33.8236025 C441.215752,32.6906776 441.42768,31.6285764 441.851544,30.6372671 C442.275407,29.6459578 442.854678,28.7962768 443.589375,28.0881988 C444.324071,27.3801207 445.171785,26.8136667 446.132543,26.3888199 C447.0933,25.963973 448.138814,25.7515528 449.269116,25.7515528 C450.342903,25.7515528 451.374289,25.963973 452.363303,26.3888199 C453.352318,26.8136667 454.214161,27.3801207 454.948857,28.0881988 C455.683554,28.7962768 456.262825,29.6459578 456.686689,30.6372671 C457.110552,31.6285764 457.32248,32.6906776 457.32248,33.8236025 Z M491.570472,88.4586335 L480.889168,88.4586335 L480.889168,46.3140373 L491.570472,46.3140373 L491.570472,52.6017391 L493.096373,52.6017391 C494.05713,50.2225968 495.611273,48.3816214 497.758847,47.0787578 C499.906422,45.7758941 502.421307,45.124472 505.303578,45.124472 C507.338122,45.124472 509.245479,45.4501831 511.025705,46.1016149 C512.805932,46.7530467 514.374203,47.7585025 515.730566,49.1180124 C517.086929,50.4775223 518.146571,52.2052069 518.909525,54.301118 C519.672479,56.3970291 520.053951,58.8894265 520.053951,61.7783851 L520.053951,88.4586335 L509.372646,88.4586335 L509.372646,64.4973913 C509.372646,61.4951403 508.652089,59.130195 507.210954,57.4024845 C505.769818,55.674774 503.692919,54.8109317 500.980193,54.8109317 C497.815346,54.8109317 495.455875,55.8730329 493.901709,57.9972671 C492.347544,60.1215013 491.570472,62.9679325 491.570472,66.536646 L491.570472,88.4586335 Z" id="Skycoin"></path>
            <path d="M28,90 C12.536027,90 0,77.463973 0,62 C0,49.9912072 7.55990707,39.7481253 18.1801465,35.770329 C19.5148489,25.7389677 28.1036581,18 38.5,18 C42.4995954,18 46.2316702,19.1453917 49.3861044,21.1260551 C55.1883503,8.6497494 67.8340465,0 82.5,0 C102.658393,0 119,16.3416066 119,36.5 C119,37.3783261 118.968976,38.2494062 118.907965,39.1122043 C131.861943,40.3255085 142,51.2288192 142,64.5 C142,77.7397349 131.90993,88.6228077 119,89.8790079 L119,90 L28,90 Z" id="Cloud"></path>
        </g>
    </g>
</svg>