<svg width="521" height="106" viewBox="0 0 521 106" xmlns="http://www.w3.org/2000/svg">
  <title>Skycoin</title>
  <g fill="#FFF" fill-rule="evenodd">
      <path d="M199.106 47.164c0-2.38-.918-4.447-2.755-6.203-1.836-1.755-4.42-2.633-7.756-2.633-2.825 0-5.058.58-6.697 1.742-1.64 1.16-2.458 2.732-2.458 4.715 0 1.02.197 1.94.592 2.76.396.822 1.088 1.56 2.077 2.21.988.652 2.288 1.232 3.9 1.742 1.61.51 3.658.99 6.145 1.445 6.217 1.133 10.964 3.03 14.242 5.693 3.277 2.662 4.916 6.6 4.916 11.81v1.02c0 2.776-.494 5.282-1.483 7.52a15.845 15.845 0 0 1-4.28 5.735c-1.866 1.586-4.127 2.804-6.783 3.654-2.656.85-5.65 1.274-8.986 1.274-3.898 0-7.332-.552-10.3-1.657-2.966-1.103-5.438-2.633-7.416-4.587a19.367 19.367 0 0 1-4.493-6.883c-1.016-2.634-1.525-5.508-1.525-8.624v-2.55h11.19v2.04c0 3.57 1.03 6.415 3.094 8.54 2.062 2.124 5.27 3.186 9.62 3.186 3.392 0 5.907-.736 7.546-2.21 1.638-1.472 2.458-3.228 2.458-5.267 0-.963-.17-1.884-.51-2.762-.338-.878-.93-1.67-1.78-2.38-.847-.707-2.005-1.344-3.475-1.91-1.47-.567-3.335-1.05-5.596-1.445-2.995-.51-5.736-1.176-8.222-1.997-2.487-.82-4.65-1.91-6.486-3.27a14.075 14.075 0 0 1-4.28-5.098c-1.018-2.04-1.526-4.532-1.526-7.478v-.51c0-2.435.494-4.687 1.483-6.754a16.358 16.358 0 0 1 4.154-5.396c1.78-1.53 3.928-2.72 6.443-3.57 2.515-.848 5.326-1.273 8.434-1.273 3.504 0 6.613.496 9.325 1.488 2.712.99 4.987 2.336 6.824 4.036 1.836 1.7 3.22 3.653 4.153 5.863.933 2.21 1.4 4.53 1.4 6.967v3.06h-11.19v-2.04zm36.452 14.614h2.035l11.19-15.464h11.698v.51L246.92 66.112v1.53l14.92 20.307v.51H249.63l-12.037-16.485h-2.035V88.46h-10.68V28.98h10.68v32.798zm66.292-15.464h10.68v52.51c0 1.927-.606 3.513-1.82 4.76-1.216 1.245-2.784 1.868-4.706 1.868h-25.008V95.256h18.565c1.527 0 2.29-.85 2.29-2.55V82.342h-1.526c-1.865 4.872-5.877 7.308-12.037 7.308-2.09 0-4.04-.34-5.85-1.02a12.675 12.675 0 0 1-4.747-3.143c-1.356-1.416-2.416-3.187-3.18-5.31-.762-2.125-1.143-4.632-1.143-7.52v-26.34h10.68v24.13c0 3.002.707 5.34 2.12 7.01 1.413 1.67 3.532 2.507 6.358 2.507 3.222 0 5.58-1.034 7.08-3.102 1.496-2.067 2.245-4.885 2.245-8.454V46.314zm64.427 26.68c-.96 4.985-3.235 9.007-6.824 12.066-3.59 3.06-8.378 4.588-14.37 4.588-3.107 0-6.004-.48-8.688-1.444-2.685-.963-5.016-2.35-6.994-4.164-1.977-1.812-3.53-4.05-4.66-6.712-1.132-2.663-1.697-5.693-1.697-9.092v-1.02c0-3.398.565-6.457 1.696-9.176 1.13-2.72 2.697-5.042 4.704-6.968 2.006-1.926 4.35-3.398 7.036-4.418 2.684-1.02 5.552-1.53 8.604-1.53 5.878 0 10.64 1.53 14.284 4.59 3.645 3.058 5.948 7.08 6.91 12.064l-10.513 2.72c-.34-2.493-1.413-4.646-3.22-6.458-1.81-1.813-4.353-2.72-7.63-2.72-1.526 0-2.968.284-4.324.85a10.606 10.606 0 0 0-3.56 2.422c-1.017 1.048-1.822 2.323-2.415 3.824-.594 1.5-.89 3.186-.89 5.055v.51c0 1.87.296 3.527.89 4.972.593 1.444 1.398 2.648 2.416 3.61a9.964 9.964 0 0 0 3.56 2.168c1.357.48 2.8.722 4.324.722 3.278 0 5.78-.82 7.503-2.464 1.724-1.643 2.84-3.852 3.348-6.628l10.512 2.634zm52.05-5.098c0 3.512-.593 6.614-1.78 9.304-1.187 2.69-2.797 4.957-4.832 6.798a21.176 21.176 0 0 1-6.994 4.206c-2.627.963-5.382 1.444-8.264 1.444-2.882 0-5.637-.48-8.265-1.444a21.176 21.176 0 0 1-6.993-4.206c-2.035-1.84-3.645-4.107-4.832-6.798-1.187-2.69-1.78-5.792-1.78-9.304v-1.02c0-3.455.593-6.528 1.78-9.22 1.187-2.69 2.797-4.97 4.832-6.84a20.818 20.818 0 0 1 6.994-4.247c2.63-.964 5.384-1.446 8.266-1.446 2.882 0 5.637.482 8.265 1.445 2.63.962 4.96 2.378 6.995 4.247 2.035 1.87 3.645 4.15 4.832 6.84 1.187 2.69 1.78 5.764 1.78 9.22v1.02zm-21.87 11.556c1.525 0 2.966-.255 4.322-.765a10.484 10.484 0 0 0 3.56-2.21c1.017-.962 1.822-2.137 2.416-3.525.593-1.388.89-2.96.89-4.716v-1.7c0-1.755-.297-3.327-.89-4.715-.594-1.387-1.4-2.562-2.416-3.525a10.484 10.484 0 0 0-3.56-2.21 12.186 12.186 0 0 0-4.324-.764c-1.526 0-2.967.256-4.323.765a10.484 10.484 0 0 0-3.56 2.21c-1.018.963-1.823 2.138-2.417 3.526-.593 1.39-.89 2.96-.89 4.717v1.7c0 1.755.297 3.327.89 4.715.594 1.388 1.4 2.563 2.416 3.526 1.017.963 2.204 1.7 3.56 2.21 1.357.51 2.798.764 4.324.764zm33.314-1.19h14.243V56.51H430.79V46.314h23.905v31.948h12.207V88.46h-37.13V78.26zm27.552-44.438a8.02 8.02 0 0 1-.635 3.186 7.696 7.696 0 0 1-1.738 2.55 8.547 8.547 0 0 1-2.587 1.698 7.76 7.76 0 0 1-3.094.638c-1.13 0-2.177-.213-3.137-.638a8.704 8.704 0 0 1-2.544-1.7 7.696 7.696 0 0 1-1.738-2.548 8.02 8.02 0 0 1-.636-3.186 8.02 8.02 0 0 1 .636-3.187 7.696 7.696 0 0 1 1.737-2.55 8.704 8.704 0 0 1 2.543-1.698c.96-.426 2.006-.638 3.136-.638a7.76 7.76 0 0 1 3.093.637c.99.424 1.85.99 2.586 1.698a7.696 7.696 0 0 1 1.737 2.55 8.02 8.02 0 0 1 .635 3.186zM491.57 88.46h-10.68V46.313h10.68v6.288h1.526c.96-2.38 2.515-4.22 4.663-5.523 2.146-1.304 4.66-1.956 7.544-1.956 2.034 0 3.94.326 5.722.978 1.78.65 3.348 1.657 4.705 3.016 1.357 1.36 2.417 3.087 3.18 5.183.762 2.097 1.144 4.59 1.144 7.478v26.68h-10.68V64.5c0-3.003-.722-5.368-2.163-7.096-1.44-1.727-3.517-2.59-6.23-2.59-3.165 0-5.524 1.06-7.078 3.185-1.554 2.125-2.332 4.97-2.332 8.54V88.46zM28 90C12.536 90 0 77.464 0 62c0-12.01 7.56-22.252 18.18-26.23C19.515 25.74 28.104 18 38.5 18c4 0 7.732 1.145 10.886 3.126C55.188 8.65 67.834 0 82.5 0 102.658 0 119 16.342 119 36.5c0 .878-.03 1.75-.092 2.612C131.862 40.326 142 51.23 142 64.5c0 13.24-10.09 24.123-23 25.38V90H28z" />
  </g>
</svg>
