<?xml version="1.0" encoding="UTF-8"?>
<svg width="1700px" height="300px" viewBox="0 0 1700 300" version="1.1" xmlns="http://www.w3.org/2000/svg" xmlns:xlink="http://www.w3.org/1999/xlink">
    <!-- Generator: Sketch 45.2 (43514) - http://www.bohemiancoding.com/sketch -->
    <title>alphabitlogo</title>
    <desc>Created with Sketch.</desc>
    <defs></defs>
    <g id="Page-1" stroke="none" stroke-width="1" fill="none" fill-rule="evenodd">
        <g id="alphabitlogo" transform="translate(0.827130, 0.000000)" fill-rule="nonzero" fill="#BDC4CC">
            <path d="M641.478989,160.197121 L580.024059,160.197121 L564.142448,195.412867 L540.665283,195.412867 L611.787281,42.1207948 L680.14726,194.722363 L656.670095,194.722363 L641.478989,160.197121 Z M633.192931,139.481976 L611.787281,90.456133 L589.691127,139.481976 L633.192931,139.481976 L633.192931,139.481976 Z" id="Shape"></path>
            <polygon id="Shape" points="759.555315 51.0973576 759.555315 174.007218 801.67611 174.007218 801.67611 194.722363 737.459161 194.722363 737.459161 51.0973576"></polygon>
            <path d="M883.15568,136.719957 L883.15568,194.722363 L861.75003,194.722363 L861.75003,51.0973576 L886.608204,51.0973576 C898.346786,51.0973576 908.013854,51.7878624 913.537893,53.8593769 C919.752436,55.2403866 925.276475,58.6929107 930.110009,63.5264445 C938.396067,71.8125025 942.539096,81.4795702 942.539096,93.9086572 C942.539096,107.028249 938.396067,117.385821 929.419504,124.981375 C920.442941,132.576928 908.704359,136.719957 893.513253,136.719957 L883.15568,136.719957 Z M883.15568,116.695317 L891.441738,116.695317 C911.466378,116.695317 921.133446,109.099763 921.133446,93.9086572 C921.133446,79.4080557 910.775873,71.8125025 890.060729,71.8125025 L883.15568,71.8125025 L883.15568,116.695317 Z" id="Shape"></path>
            <polygon id="Shape" points="1025.39968 107.718754 1087.54511 107.718754 1087.54511 51.7878624 1108.95076 51.7878624 1108.95076 195.412867 1087.54511 195.412867 1087.54511 128.433899 1025.39968 128.433899 1025.39968 195.412867 1003.99403 195.412867 1003.99403 51.0973576 1025.39968 51.0973576"></polygon>
            <path d="M1267.07637,160.197121 L1205.62144,160.197121 L1189.73983,195.412867 L1166.26266,195.412867 L1237.38466,42.8112996 L1305.74464,195.412867 L1282.26747,195.412867 L1267.07637,160.197121 Z M1258.0998,139.481976 L1236.69415,90.456133 L1214.598,139.481976 L1258.0998,139.481976 L1258.0998,139.481976 Z" id="Shape"></path>
            <path d="M1376.17613,194.722363 L1376.17613,51.0973576 L1397.58178,51.0973576 C1407.24885,51.0973576 1414.8444,51.7878624 1420.36844,53.1688721 C1425.89248,54.5498817 1430.72601,57.3119011 1434.86904,60.7644252 C1439.01207,64.2169494 1441.77409,69.0504832 1444.53611,74.5745219 C1447.29813,80.0985605 1447.98863,85.6225992 1447.98863,91.1466378 C1447.98863,101.50421 1443.8456,110.480773 1436.25005,117.385821 C1443.8456,120.147841 1450.06015,124.29087 1454.20318,131.195918 C1458.34621,137.410462 1461.10822,145.006015 1461.10822,153.982578 C1461.10822,165.030655 1456.9652,174.697723 1449.36964,182.293276 C1444.53611,187.126809 1439.01207,190.579334 1433.48803,191.960343 C1427.27349,194.031858 1418.98743,194.722363 1409.32036,194.722363 L1376.17613,194.722363 Z M1398.27228,113.242792 L1405.17733,113.242792 C1413.46339,113.242792 1418.98743,111.171278 1423.13046,107.718754 C1426.58298,104.26623 1428.6545,98.742191 1428.6545,91.8371427 C1428.6545,84.9320943 1426.58298,80.0985605 1423.13046,76.6460364 C1418.98743,73.1935122 1413.46339,71.1219977 1406.55834,71.1219977 L1398.96279,71.1219977 L1398.96279,113.242792 L1398.27228,113.242792 Z M1398.27228,174.697723 L1411.39188,174.697723 C1421.05894,174.697723 1428.6545,172.626208 1432.79753,169.173684 C1437.63106,165.030655 1440.39308,159.506616 1440.39308,153.292073 C1440.39308,147.077529 1438.32157,141.553491 1433.48803,137.410462 C1428.6545,133.267433 1421.05894,131.195918 1409.32036,131.195918 L1398.27228,131.195918 L1398.27228,174.697723 Z" id="Shape"></path>
            <polygon id="Shape" points="1549.49284 51.0973576 1549.49284 194.722363 1528.08719 194.722363 1528.08719 51.0973576"></polygon>
            <polygon id="Shape" points="1663.42614 71.8125025 1663.42614 194.722363 1642.02049 194.722363 1642.02049 71.8125025 1608.87626 71.8125025 1608.87626 51.7878624 1696.57037 51.7878624 1696.57037 71.8125025"></polygon>
            <path d="M547.570332,288.63102 L547.570332,239.605177 L564.832953,239.605177 C568.975982,239.605177 571.738001,239.605177 573.809515,240.295682 C576.571535,240.986186 579.333554,242.367196 580.714564,243.748206 C583.476583,245.81972 585.548098,248.58174 586.238602,252.034264 C587.619612,255.486788 588.310117,259.629817 588.310117,263.772846 C588.310117,267.22537 587.619612,270.677894 586.929107,273.439913 C586.238602,276.201933 584.857593,278.963952 583.476583,280.344962 C582.095573,282.416476 580.714564,283.797486 578.643049,284.487991 C577.26204,285.869 575.190525,286.559505 573.119011,287.25001 C571.047496,287.940515 568.285477,287.940515 565.523457,287.940515 L547.570332,287.940515 L547.570332,288.63102 Z M553.784875,282.416476 L564.142448,282.416476 C567.594972,282.416476 569.666486,282.416476 571.738001,281.725971 C573.809515,281.035467 575.190525,280.344962 575.88103,278.963952 C577.26204,277.582942 578.643049,275.511428 579.333554,272.749409 C580.024059,269.987389 580.714564,267.22537 580.714564,263.082341 C580.714564,258.248807 580.024059,254.105778 577.952544,251.343759 C576.571535,248.58174 574.50002,246.510225 571.738001,245.81972 C569.666486,245.129215 566.904467,245.129215 563.451943,245.129215 L553.09437,245.129215 L553.09437,282.416476 L553.784875,282.416476 Z" id="Shape"></path>
            <polygon id="Shape" points="612.477786 288.63102 612.477786 239.605177 618.69233 239.605177 618.69233 288.63102"></polygon>
            <path d="M667.718173,269.296884 L667.718173,263.772846 L688.433318,263.772846 L688.433318,281.725971 C684.980793,284.487991 682.218774,285.869 678.76625,287.25001 C675.313726,288.63102 671.861202,289.321525 668.408677,289.321525 C663.575144,289.321525 659.432115,287.940515 655.289086,285.869 C651.146057,283.797486 648.384037,281.035467 646.312523,276.892438 C644.241008,272.749409 643.550503,268.60638 643.550503,263.772846 C643.550503,258.939312 644.241008,254.796283 646.312523,250.653254 C648.384037,246.510225 651.146057,243.748206 655.289086,241.676691 C658.74161,239.605177 663.575144,238.914672 668.408677,238.914672 C671.861202,238.914672 675.313726,239.605177 678.075745,240.295682 C680.837764,241.676691 682.909279,243.057701 684.980793,245.129215 C686.361803,247.20073 687.742813,249.962749 688.433318,253.415273 L682.218774,254.796283 C681.528269,252.034264 680.837764,250.653254 679.456755,248.58174 C678.075745,247.20073 676.694735,245.81972 674.623221,245.129215 C672.551706,244.438711 670.480192,243.748206 667.718173,243.748206 C664.956153,243.748206 662.194134,244.438711 660.122619,245.129215 C658.051105,245.81972 655.97959,247.20073 654.598581,248.58174 C653.217571,249.962749 652.527066,252.034264 651.836561,253.415273 C650.455552,256.177293 649.765047,259.629817 649.765047,263.082341 C649.765047,267.22537 650.455552,271.368399 651.836561,274.130418 C653.217571,276.892438 655.289086,278.963952 658.74161,281.035467 C661.503629,282.416476 664.956153,283.106981 667.718173,283.106981 C670.480192,283.106981 673.242211,282.416476 676.004231,281.725971 C678.76625,280.344962 680.837764,279.654457 682.218774,278.273447 L682.218774,269.296884 L667.718173,269.296884 Z" id="Shape"></path>
            <polygon id="Shape" points="713.291491 288.63102 713.291491 239.605177 719.506035 239.605177 719.506035 288.63102"></polygon>
            <polygon id="Shape" points="758.174306 288.63102 758.174306 245.129215 742.292694 245.129215 742.292694 239.605177 780.960965 239.605177 780.960965 245.129215 764.388849 245.129215 764.388849 288.63102"></polygon>
            <path d="M791.318538,288.63102 L809.962168,239.605177 L816.867216,239.605177 L836.891856,288.63102 L829.296303,288.63102 L823.772265,273.439913 L803.05712,273.439913 L797.533081,288.63102 L791.318538,288.63102 Z M805.128634,267.915875 L821.70075,267.915875 L816.867216,254.105778 C815.486207,249.962749 814.105197,246.510225 813.414692,243.748206 C812.724187,247.20073 812.033682,249.962749 810.652673,253.415273 L805.128634,267.915875 Z" id="Shape"></path>
            <polygon id="Shape" points="856.225992 288.63102 856.225992 239.605177 862.440535 239.605177 862.440535 283.106981 886.608204 283.106981 886.608204 288.63102 856.225992 288.63102"></polygon>
            <path d="M974.992823,271.368399 L981.207366,272.749409 C979.826357,278.273447 977.064337,282.416476 973.611813,285.178496 C970.159289,287.940515 966.01626,289.321525 960.492221,289.321525 C954.968183,289.321525 950.825154,287.940515 947.37263,285.869 C943.920105,283.797486 941.848591,280.344962 939.777076,276.201933 C937.705562,272.058904 937.015057,267.915875 937.015057,263.082341 C937.015057,258.248807 937.705562,253.415273 939.777076,249.962749 C941.848591,245.81972 944.61061,243.057701 948.063134,240.986186 C951.515659,238.914672 955.658688,238.224167 959.801717,238.224167 C964.63525,238.224167 968.778279,239.605177 972.230804,241.676691 C975.683328,244.438711 977.754842,247.891235 979.135852,252.034264 L972.921308,253.415273 C971.540299,249.962749 970.159289,247.20073 968.087775,245.81972 C966.01626,244.438711 963.254241,243.057701 959.801717,243.057701 C956.349192,243.057701 952.896668,243.748206 950.134649,245.81972 C947.37263,247.891235 945.99162,249.962749 944.61061,253.415273 C943.920105,256.177293 943.229601,259.629817 943.229601,263.082341 C943.229601,267.22537 943.920105,270.677894 945.301115,274.130418 C946.682125,277.582942 948.753639,279.654457 950.825154,281.035467 C953.587173,282.416476 956.349192,283.106981 959.111212,283.106981 C962.563736,283.106981 966.01626,281.725971 968.087775,279.654457 C972.230804,278.273447 973.611813,275.511428 974.992823,271.368399 Z" id="Shape"></path>
            <path d="M1035.75725,238.914672 L1041.97179,238.914672 L1041.97179,267.22537 C1041.97179,272.058904 1041.28129,276.201933 1040.59078,278.963952 C1039.20977,281.725971 1037.13826,284.487991 1034.37624,285.869 C1031.61422,287.940515 1027.47119,288.63102 1022.63766,288.63102 C1017.80412,288.63102 1014.3516,287.940515 1011.58958,286.559505 C1008.82756,285.178496 1006.75605,282.416476 1005.37504,279.654457 C1003.99403,276.892438 1003.30352,272.749409 1003.30352,267.22537 L1003.30352,238.914672 L1009.51806,238.914672 L1009.51806,267.22537 C1009.51806,271.368399 1010.20857,274.820923 1010.89907,276.892438 C1011.58958,278.963952 1012.97059,280.344962 1015.0421,281.725971 C1017.11362,283.106981 1019.18513,283.106981 1021.94715,283.106981 C1026.78069,283.106981 1030.23321,281.725971 1032.30472,279.654457 C1034.37624,277.582942 1035.06674,273.439913 1035.06674,267.22537 L1035.06674,238.914672 L1035.75725,238.914672 Z" id="Shape"></path>
            <path d="M1067.52047,288.63102 L1067.52047,239.605177 L1089.61662,239.605177 C1093.75965,239.605177 1097.21218,240.295682 1099.28369,240.986186 C1101.35521,241.676691 1103.42672,243.748206 1104.80773,245.81972 C1106.18874,247.891235 1106.87925,250.653254 1106.87925,253.415273 C1106.87925,256.867798 1105.49824,259.629817 1103.42672,262.391836 C1101.35521,264.463351 1097.90268,266.534865 1093.06915,267.22537 C1095.14066,267.915875 1095.83117,268.60638 1097.21218,269.987389 C1099.28369,272.058904 1100.6647,274.130418 1102.73622,276.201933 L1111.02227,289.321525 L1102.73622,289.321525 L1096.52167,278.963952 C1094.45016,276.201933 1093.06915,273.439913 1091.68814,272.058904 C1090.30713,270.677894 1089.61662,269.296884 1088.23562,268.60638 C1087.54511,267.915875 1086.1641,267.22537 1085.4736,267.22537 C1084.78309,267.22537 1083.40208,267.22537 1082.02107,267.22537 L1074.42552,267.22537 L1074.42552,289.321525 L1067.52047,289.321525 L1067.52047,288.63102 Z M1073.73501,261.010827 L1087.54511,261.010827 C1090.30713,261.010827 1093.06915,261.010827 1094.45016,260.320322 C1095.83117,259.629817 1097.21218,258.939312 1098.59319,257.558302 C1099.28369,256.177293 1099.9742,254.796283 1099.9742,253.415273 C1099.9742,251.343759 1099.28369,249.272244 1097.21218,247.891235 C1095.83117,246.510225 1093.06915,245.81972 1088.92612,245.81972 L1073.04451,245.81972 L1073.04451,261.010827 L1073.73501,261.010827 Z" id="Shape"></path>
            <path d="M1131.04691,288.63102 L1131.04691,239.605177 L1153.14307,239.605177 C1157.2861,239.605177 1160.73862,240.295682 1162.81014,240.986186 C1164.88165,241.676691 1166.95317,243.748206 1168.33418,245.81972 C1169.71519,247.891235 1170.40569,250.653254 1170.40569,253.415273 C1170.40569,256.867798 1169.02468,259.629817 1166.95317,262.391836 C1164.88165,264.463351 1161.42913,266.534865 1156.59559,267.22537 C1157.9766,267.915875 1159.35761,268.60638 1160.73862,269.987389 C1162.81014,272.058904 1164.19115,274.130418 1166.26266,276.201933 L1174.54872,289.321525 L1166.26266,289.321525 L1160.04812,278.963952 C1157.9766,276.201933 1156.59559,273.439913 1155.21458,272.058904 C1153.83357,270.677894 1153.14307,269.296884 1151.76206,268.60638 C1151.07156,267.915875 1149.69055,267.22537 1149.00004,267.22537 C1148.30954,267.22537 1146.92853,267.22537 1145.54752,267.22537 L1137.95196,267.22537 L1137.95196,289.321525 L1131.04691,289.321525 L1131.04691,288.63102 Z M1137.26146,261.010827 L1151.07156,261.010827 C1153.83357,261.010827 1156.59559,261.010827 1157.9766,260.320322 C1159.35761,259.629817 1160.73862,258.939312 1162.11963,257.558302 C1162.81014,256.177293 1163.50064,254.796283 1163.50064,253.415273 C1163.50064,251.343759 1162.81014,249.272244 1160.73862,247.891235 C1159.35761,246.510225 1156.59559,245.81972 1152.45256,245.81972 L1136.57095,245.81972 L1136.57095,261.010827 L1137.26146,261.010827 Z" id="Shape"></path>
            <polygon id="Shape" points="1194.57336 288.63102 1194.57336 239.605177 1230.47961 239.605177 1230.47961 245.129215 1201.47841 245.129215 1201.47841 260.320322 1228.4081 260.320322 1228.4081 265.84436 1201.47841 265.84436 1201.47841 282.416476 1231.86062 282.416476 1231.86062 287.940515 1194.57336 287.940515"></polygon>
            <polygon id="Shape" points="1254.64728 288.63102 1254.64728 239.605177 1261.55233 239.605177 1287.10101 278.273447 1287.10101 239.605177 1293.31555 239.605177 1293.31555 288.63102 1286.4105 288.63102 1260.86182 249.962749 1260.86182 288.63102"></polygon>
            <path d="M1353.38947,271.368399 L1359.60401,272.749409 C1358.223,278.273447 1356.15149,282.416476 1352.00846,285.178496 C1348.55594,287.940515 1344.41291,289.321525 1338.88887,289.321525 C1333.36483,289.321525 1329.2218,287.940515 1325.76928,285.869 C1322.31675,283.797486 1320.24524,280.344962 1318.17372,276.201933 C1316.10221,272.058904 1315.41171,267.915875 1315.41171,263.082341 C1315.41171,258.248807 1316.10221,253.415273 1318.17372,249.962749 C1320.24524,245.81972 1323.00726,243.057701 1326.45978,240.986186 C1329.91231,238.914672 1334.05534,238.224167 1338.19836,238.224167 C1343.0319,238.224167 1347.17493,239.605177 1350.62745,241.676691 C1354.07998,244.438711 1356.15149,247.891235 1357.5325,252.034264 L1351.31796,253.415273 C1349.93695,249.962749 1348.55594,247.20073 1346.48442,245.81972 C1344.41291,244.438711 1341.65089,243.057701 1338.19836,243.057701 C1334.74584,243.057701 1331.29332,243.748206 1328.5313,245.81972 C1325.76928,247.891235 1324.38827,249.962749 1323.00726,253.415273 C1321.62625,256.177293 1321.62625,259.629817 1321.62625,263.082341 C1321.62625,267.22537 1322.31675,270.677894 1323.69776,274.130418 C1325.07877,277.582942 1326.45978,279.654457 1329.2218,281.035467 C1331.98382,282.416476 1334.74584,283.106981 1337.50786,283.106981 C1340.96038,283.106981 1344.41291,281.725971 1346.48442,279.654457 C1351.31796,278.273447 1352.69897,275.511428 1353.38947,271.368399 Z" id="Shape"></path>
            <path d="M1396.20077,288.63102 L1396.20077,267.915875 L1377.55714,239.605177 L1385.15269,239.605177 L1394.81976,254.105778 C1396.89128,256.867798 1398.27228,259.629817 1399.65329,262.391836 C1401.0343,259.629817 1403.10582,256.867798 1405.17733,253.415273 L1414.8444,238.914672 L1422.43995,238.914672 L1403.10582,267.22537 L1403.10582,287.940515 L1396.20077,287.940515 L1396.20077,288.63102 Z" id="Shape"></path>
            <polygon id="Shape" points="1474.91832 288.63102 1474.91832 239.605177 1508.06255 239.605177 1508.06255 245.129215 1481.13286 245.129215 1481.13286 260.320322 1503.91952 260.320322 1503.91952 265.84436 1481.13286 265.84436 1481.13286 287.940515 1474.91832 287.940515"></polygon>
            <path d="M1562.61243,238.914672 L1568.82698,238.914672 L1568.82698,267.22537 C1568.82698,272.058904 1568.13647,276.201933 1567.44597,278.963952 C1566.06496,281.725971 1563.99344,284.487991 1561.23143,285.869 C1558.46941,287.940515 1554.32638,288.63102 1549.49284,288.63102 C1544.65931,288.63102 1541.20679,287.940515 1538.44477,286.559505 C1535.68275,285.178496 1533.61123,282.416476 1532.23022,279.654457 C1530.84921,276.892438 1530.15871,272.749409 1530.15871,267.22537 L1530.15871,238.914672 L1536.37325,238.914672 L1536.37325,267.22537 C1536.37325,271.368399 1537.06376,274.820923 1537.75426,276.892438 C1538.44477,278.963952 1539.82578,280.344962 1541.89729,281.725971 C1543.9688,283.106981 1546.04032,283.106981 1548.80234,283.106981 C1553.63587,283.106981 1557.0884,281.725971 1559.15991,279.654457 C1561.23143,277.582942 1561.92193,273.439913 1561.92193,267.22537 L1561.92193,238.914672 L1562.61243,238.914672 Z" id="Shape"></path>
            <polygon id="Shape" points="1594.37566 288.63102 1594.37566 239.605177 1601.28071 239.605177 1626.82938 278.273447 1626.82938 239.605177 1633.04393 239.605177 1633.04393 288.63102 1626.13888 288.63102 1600.5902 249.962749 1600.5902 288.63102"></polygon>
            <path d="M1657.9021,288.63102 L1657.9021,239.605177 L1675.16472,239.605177 C1679.30775,239.605177 1682.06977,239.605177 1684.14129,240.295682 C1686.9033,240.986186 1689.66532,242.367196 1691.04633,243.748206 C1693.80835,245.81972 1695.87987,248.58174 1696.57037,252.034264 C1697.95138,255.486788 1698.64189,259.629817 1698.64189,263.772846 C1698.64189,267.22537 1697.95138,270.677894 1697.26088,273.439913 C1696.57037,276.201933 1695.18936,278.963952 1693.80835,280.344962 C1692.42734,282.416476 1691.04633,283.797486 1689.66532,284.487991 C1688.28431,285.869 1686.2128,286.559505 1684.14129,287.25001 C1682.06977,287.940515 1679.30775,287.940515 1676.54573,287.940515 L1657.9021,287.940515 L1657.9021,288.63102 Z M1664.80715,282.416476 L1675.16472,282.416476 C1678.61725,282.416476 1680.68876,282.416476 1682.76028,281.725971 C1684.83179,281.035467 1686.2128,280.344962 1686.9033,278.963952 C1688.28431,277.582942 1689.66532,275.511428 1690.35583,272.749409 C1691.04633,269.987389 1691.73684,267.22537 1691.73684,263.082341 C1691.73684,258.248807 1691.04633,254.105778 1688.97482,251.343759 C1687.59381,248.58174 1685.5223,246.510225 1682.76028,245.81972 C1680.68876,245.129215 1677.92674,245.129215 1674.47422,245.129215 L1664.11665,245.129215 L1664.11665,282.416476 L1664.80715,282.416476 Z" id="Shape"></path>
            <path d="M301.060107,151.220558 L271.368399,122.219355 L268.60638,124.981375 L231.319119,162.268636 L194.031858,124.981375 L191.269838,122.219355 L187.126809,117.385821 L187.126809,117.385821 C184.36479,114.623802 181.602771,111.861783 178.840751,109.099763 C160.197121,92.5276475 135.338947,82.8605798 108.409259,82.8605798 C48.3353382,82.8605798 0,131.195918 0,191.269838 C0,250.653254 48.3353382,299.679097 108.409259,299.679097 C135.338947,299.679097 160.197121,290.012029 178.840751,273.439913 C181.602771,270.677894 184.36479,267.915875 187.126809,265.153856 L187.126809,265.153856 L191.960343,260.320322 L194.722363,257.558302 L232.009624,220.271041 L269.296884,257.558302 L272.058904,260.320322 L301.750612,231.319119 L261.701331,191.269838 L301.060107,151.220558 Z M162.268636,231.319119 L158.125607,235.462148 L157.435102,236.152653 L157.435102,236.152653 C154.673082,238.914672 151.911063,241.676691 148.458539,244.438711 C137.410462,253.415273 122.90986,258.248807 107.718754,258.248807 C71.1219977,258.248807 40.7397851,228.557099 40.7397851,191.269838 C40.7397851,154.673082 70.4314929,124.29087 107.718754,124.29087 C122.90986,124.29087 137.410462,129.814908 148.458539,138.100966 C151.911063,140.862986 154.673082,142.9345 157.435102,146.387024 L157.435102,146.387024 L158.125607,147.077529 L162.268636,151.220558 L202.317916,191.269838 L162.268636,231.319119 Z" id="Shape"></path>
            <path d="M354.919484,82.8605798 C345.252416,82.8605798 335.585348,84.2415895 326.608786,87.0036088 L326.608786,0 L284.487991,0 L284.487991,109.099763 L314.179699,138.100966 C325.227776,129.124404 339.728377,124.29087 354.919484,124.29087 C391.51624,124.29087 421.898452,153.982578 421.898452,191.269838 C421.898452,227.866595 392.206745,258.248807 354.919484,258.248807 C339.728377,258.248807 325.227776,252.724769 314.179699,244.438711 L284.487991,273.439913 C303.131621,290.012029 327.989795,299.679097 354.919484,299.679097 C414.302899,299.679097 463.328742,251.343759 463.328742,191.269838 C463.328742,131.195918 414.993404,82.8605798 354.919484,82.8605798 Z" id="Shape"></path>
        </g>
    </g>
</svg>