<?xml version="1.0" encoding="UTF-8"?>
<svg width="423px" height="400px" viewBox="0 0 423 400" version="1.1" xmlns="http://www.w3.org/2000/svg" xmlns:xlink="http://www.w3.org/1999/xlink">
    <!-- Generator: Sketch 45.2 (43514) - http://www.bohemiancoding.com/sketch -->
    <title>Group</title>
    <desc>Created with Sketch.</desc>
    <defs></defs>
    <g id="Page-1" stroke="none" stroke-width="1" fill="none" fill-rule="evenodd">
        <g id="Group" fill="#BDC4CC">
            <path d="M273.816092,6.03103448 C261.886207,12.9609195 239.265517,26.0436782 223.886207,34.908046 C216.831034,38.9758621 206.064368,45.1885057 199.962069,48.7137931 C193.85977,52.2402299 183.335632,58.2942529 176.575862,62.1678161 L164.285057,69.2103448 L164.266667,138.036782 C164.256322,175.891954 164.411494,206.863218 164.611494,206.863218 C164.811494,206.863218 169.102299,204.466667 174.147126,201.537931 C179.190805,198.609195 184.566667,195.497701 186.091954,194.622989 L188.866667,193.033333 L189.212644,138.421839 L189.55977,83.8103448 L204.816092,74.9770115 C213.206897,70.1183908 222.725287,64.6022989 225.966667,62.7183908 C229.209195,60.8344828 241.847126,53.5321839 254.052874,46.4896552 C266.257471,39.4471264 277.911494,32.6965517 279.950575,31.4885057 L283.658621,29.2931034 L288.61954,32.1678161 C299.386207,38.4091954 317.195402,48.7057471 331.72069,57.0873563 C340.111494,61.9287356 351.970115,68.7758621 358.072414,72.3034483 C364.175862,75.8298851 371.111494,79.8367816 373.486207,81.2091954 L377.804598,83.7022989 L377.994253,137.828736 C378.117241,173.181609 377.942529,192.23908 377.489655,192.774713 C377.108046,193.226437 371.803448,196.467816 365.701149,199.978161 C342.262069,213.458621 332.022989,219.358621 320.972414,225.749425 C314.67931,229.388506 303.803448,235.678161 296.805747,239.725287 C289.806897,243.773563 283.974713,247.085057 283.845977,247.085057 C283.454023,247.085057 263.950575,235.988506 261.093103,234.13908 L258.425287,232.413793 L246.010345,239.552874 C232.341379,247.412644 232.834483,246.991954 235.506897,248.51954 C236.552874,249.118391 245.990805,254.552874 256.47931,260.596552 C266.967816,266.64023 277.37931,272.628736 279.616092,273.904598 L283.681609,276.224138 L292.098851,271.432184 C302.394253,265.570115 319.25977,255.852874 351.137931,237.416092 C364.487356,229.695402 377.905747,221.956322 380.957471,220.217241 C384.008046,218.478161 387.909195,216.217241 389.625287,215.193103 C391.342529,214.168966 395.012644,211.993103 397.781609,210.35977 C400.887356,208.527586 402.957471,206.822989 403.181609,205.912644 C403.381609,205.101149 403.455172,174.034483 403.347126,136.875862 L403.148276,69.3149425 L397.601149,66.1011494 C381.081609,56.5333333 331.210345,27.7229885 323.745977,23.4356322 C318.978161,20.6988506 308.212644,14.5114943 299.821839,9.68850575 C281.906897,-0.610344828 284.597701,-0.232183908 273.816092,6.03103448 M294.62069,359.08046 L294.62069,397.567816 L297.463218,397.567816 L300.305747,397.567816 L300.063218,365.386207 C299.867816,339.429885 299.98046,333.897701 300.644828,336.781609 C301.250575,339.414943 314.463218,384.968966 317.922989,396.354023 C318.193103,397.241379 319.024138,397.567816 321.01954,397.567816 L323.745977,397.567816 L323.745977,359.08046 L323.745977,320.593103 L320.972414,320.593103 L318.198851,320.593103 L318.228736,343.650575 C318.244828,356.332184 318.529885,370.92069 318.862069,376.070115 C319.573563,387.097701 319.444828,387.664368 317.862069,380.441379 C317.210345,377.465517 313.42069,364.129885 309.441379,350.806897 C305.462069,337.485057 301.866667,325.236782 301.451724,323.588506 C300.705747,320.626437 300.662069,320.593103 297.658621,320.593103 L294.62069,320.593103 L294.62069,359.08046 M337.206897,346.175862 C331.826437,349.456322 329.356322,356.203448 328.8,369.135632 C327.967816,388.501149 332.232184,398.481609 341.378161,398.571264 C348.267816,398.637931 352.048276,394.112644 353.947126,383.525287 L354.412644,380.924138 L351.54023,380.924138 C348.408046,380.924138 348.341379,381.010345 347.685057,385.918391 C347.186207,389.650575 344.229885,393.406897 341.791954,393.406897 C337.852874,393.406897 335.133333,388.002299 334.378161,378.670115 L333.942529,373.296552 L344.483908,373.296552 L355.024138,373.296552 L354.582759,367.228736 C353.287356,349.403448 346.131034,340.733333 337.206897,346.175862 M407.274713,345.83908 C397.172414,350.24023 397.777011,361.197701 408.749425,372.57931 C415.606897,379.693103 417.671264,383.567816 416.625287,387.357471 C414.904598,393.587356 408.181609,394.557471 402.628736,389.378161 L400.72069,387.6 L400.72069,391.496552 C400.72069,401.262069 416.228736,401.804598 420.928736,392.203448 C424.737931,384.41954 423.010345,378.893103 413.766667,369.298851 C405.009195,360.210345 403.743678,356.127586 408.454023,352.164368 C411.058621,349.972414 413.421839,349.958621 417.190805,352.113793 L420.137931,353.798851 L420.137931,350.683908 C420.137931,345.917241 413.143678,343.282759 407.274713,345.83908 M355.645977,346.187356 C355.645977,347.052874 362.164368,383.872414 363.734483,391.88046 L364.864368,397.635632 L368.017241,397.427586 L371.168966,397.22069 L372.347126,389.593103 C374.86092,373.310345 376.450575,362.363218 376.927586,358.04023 L377.425287,353.532184 L377.985057,358.04023 C378.294253,360.51954 379.635632,370.193103 380.967816,379.537931 C382.3,388.881609 383.388506,396.762069 383.387356,397.047126 C383.386207,397.333333 384.767816,397.567816 386.458621,397.567816 C390.081609,397.567816 389.666667,398.473563 392.009195,385.432184 C392.968966,380.091954 395.009195,369.047126 396.543678,360.888506 C398.078161,352.728736 399.334483,345.941379 399.334483,345.805747 C399.334483,345.094253 393.887356,345.682759 393.604598,346.424138 C393.422989,346.901149 391.962069,355.872414 390.358621,366.362069 C386.98046,388.454023 386.7,389.881609 386.333333,386.818391 C386.196552,385.674713 384.852874,376.204598 383.348276,365.774713 C381.842529,355.343678 380.610345,346.528736 380.610345,346.183908 C380.610345,345.83908 379.206897,345.557471 377.489655,345.557471 C375.773563,345.557471 374.368966,345.881609 374.368966,346.278161 C374.368966,346.673563 373.13908,355.021839 371.634483,364.827586 C370.129885,374.634483 368.677011,384.218391 368.405747,386.125287 C367.966667,389.209195 367.655172,387.829885 365.588506,373.642529 C364.310345,364.870115 362.871264,355.04023 362.391954,351.798851 L361.518391,345.904598 L358.582759,345.690805 C356.903448,345.568966 355.645977,345.781609 355.645977,346.187356 M345.81954,352.847126 C347.227586,354.636782 348.329885,358.662069 348.997701,364.454023 L349.378161,367.748276 L341.712644,367.748276 L334.048276,367.748276 L334.542529,363.76092 C335.877011,352.978161 341.58046,347.458621 345.81954,352.847126" id="path0"></path>
            <path d="M124.72069,8.45862069 C97.3333333,24.3850575 44.7,54.7885057 32.337931,61.8229885 L19.3574713,69.2103448 L19.3356322,138.226437 L19.3126437,207.243678 L33.0091954,215.151724 C40.5413793,219.502299 54.3505747,227.481609 63.6954023,232.885057 C73.0390805,238.287356 86.9264368,246.306897 94.554023,250.705747 C102.182759,255.104598 115.233333,262.63908 123.556322,267.449425 L138.688506,276.196552 L145.4,272.290805 C149.091954,270.142529 157.26092,265.428736 163.555172,261.813793 C169.848276,258.2 183.110345,250.549425 193.027586,244.812644 C202.943678,239.075862 217.766667,230.504598 225.966667,225.765517 C234.166667,221.025287 244.698851,214.928736 249.371264,212.218391 L257.866667,207.288506 L257.866667,138.478161 L257.866667,69.6666667 L245.557471,76.7942529 L233.248276,83.9218391 L233.071264,138.444828 L232.893103,192.967816 L231.336782,193.913793 C223.405747,198.735632 139.150575,247.085057 138.67931,247.085057 C138.217241,247.085057 72.4781609,209.375862 51.3862069,197.012644 L44.2781609,192.845977 L44.2781609,138.297701 L44.2781609,83.7505747 L91.4609195,56.508046 L138.643678,29.2643678 L142.604598,31.4977011 C144.782759,32.7252874 150.526437,36.0402299 155.367816,38.862069 L164.171264,43.9942529 L175.963218,37.1850575 C182.449425,33.4402299 187.8,30.0632184 187.854023,29.6827586 C187.972414,28.8413793 140.063218,0.909195402 138.589655,0.962068966 C138.017241,0.981609195 131.777011,4.35517241 124.72069,8.45862069 M40.1172414,356.652874 L40.1172414,397.567816 L44.6252874,397.567816 L49.1321839,397.567816 L49.1321839,356.652874 L49.1321839,315.737931 L44.6252874,315.737931 L40.1172414,315.737931 L40.1172414,356.652874 M114.318391,356.652874 L114.318391,397.567816 L118.47931,397.567816 L122.64023,397.567816 L122.64023,384.275862 C122.64023,376.965517 122.816092,371.16092 123.031034,371.375862 C123.245977,371.590805 126.068966,377.336782 129.304598,384.143678 C136.290805,398.847126 135.316092,397.688506 140.486207,397.429885 L144.668966,397.22069 L138.173563,383.697701 C134.6,376.26092 131.841379,369.708046 132.042529,369.135632 C132.243678,368.563218 135.047126,363.194253 138.272414,357.204598 C141.498851,351.216092 144.137931,346.144828 144.137931,345.936782 C144.137931,345.727586 142.151724,345.557471 139.725287,345.557471 L135.312644,345.557471 L129.149425,357.127586 L122.986207,368.696552 L122.804598,342.217241 L122.622989,315.737931 L118.471264,315.737931 L114.318391,315.737931 L114.318391,356.652874 M169.102299,356.652874 L169.102299,397.567816 L173.224138,397.567816 L177.344828,397.567816 L177.557471,377.852874 C177.803448,355.172414 177.986207,354.428736 183.424138,354.01954 C188.785057,353.614943 188.835632,353.821839 189.078161,377.181609 L189.289655,397.567816 L193.412644,397.567816 L197.534483,397.567816 L197.534483,375.354023 C197.534483,348.04023 197.096552,346.471264 189.257471,345.718391 C184.722989,345.282759 182.801149,345.834483 179.864368,348.412644 L177.424138,350.555172 L177.424138,333.147126 L177.424138,315.737931 L173.263218,315.737931 L169.102299,315.737931 L169.102299,356.652874 M0.589655172,359.005747 L0.589655172,397.567816 L9.84137931,397.567816 C28.1586207,397.567816 33.2229885,393.287356 33.7712644,377.341379 C34.1482759,366.375862 31.8712644,360.985057 25.9137931,358.733333 L23.8448276,357.951724 L26.2804598,356.55977 C31.291954,353.696552 33.716092,346.714943 32.9310345,337.408046 C31.8356322,324.41954 27.5701149,321.150575 11.1643678,320.72069 L0.589655172,320.444828 L0.589655172,359.005747 M242.075862,324.524138 C241.590805,324.71954 240.732184,325.771264 240.168966,326.862069 C236.865517,333.249425 243.521839,339.293103 248.488506,334.414943 C252.731034,330.248276 247.582759,322.308046 242.075862,324.524138 M18.9425287,330.593103 C22.4103448,332.042529 23.7931034,335.12069 23.7931034,341.396552 C23.7931034,349.771264 21.4632184,352.757471 14.2712644,353.603448 L10.2977011,354.070115 L10.2977011,341.83908 L10.2977011,329.608046 L13.4413793,329.608046 C15.1689655,329.608046 17.6448276,330.051724 18.9425287,330.593103 M64.6045977,346.212644 C51.3827586,352.216092 51.0632184,390.941379 64.183908,397.26092 C75.8873563,402.896552 84.8850575,393.587356 85.7068966,374.993103 C86.7091954,352.306897 77.8367816,340.205747 64.6045977,346.212644 M98.5827586,345.88046 C87.5758621,350.667816 86.045977,388.029885 96.5114943,396.451724 C102.643678,401.386207 110.157471,399.110345 110.157471,392.318391 C110.157471,388.075862 110.078161,387.852874 108.816092,388.527586 C102.362069,391.982759 98.3586207,385.75977 98.3793103,372.303448 C98.4022989,357.812644 102.34023,351.131034 108.816092,354.596552 C110.077011,355.271264 110.157471,355.049425 110.157471,350.893103 L110.157471,346.470115 L107.477011,345.666667 C103.996552,344.624138 101.324138,344.688506 98.5827586,345.88046 M153.303448,346.017241 C142.363218,351.410345 141.58046,390.364368 152.27931,396.977011 C158.836782,401.029885 165.635632,398.691954 165.635632,392.383908 C165.635632,388.234483 164.985057,386.798851 163.901149,388.552874 C163.164368,389.744828 158.321839,389.356322 157.101149,388.006897 C152.183908,382.574713 152.178161,360.557471 157.091954,355.127586 C158.525287,353.543678 162.664368,353.486207 164.366667,355.026437 C165.583908,356.127586 165.635632,355.985057 165.635632,351.524138 L165.635632,346.873563 L163.229885,345.868966 C160.091954,344.557471 156.145977,344.617241 153.303448,346.017241 M210.985057,346.181609 C202.92069,351.098851 200.478161,380.747126 207.126437,393.002299 C210.625287,399.450575 217.785057,400.533333 222.631034,395.347126 L224.58046,393.25977 L224.58046,395.413793 L224.58046,397.567816 L228.741379,397.567816 L232.901149,397.567816 L232.901149,371.562069 L232.901149,345.557471 L228.741379,345.557471 L224.58046,345.557471 L224.58046,348.078161 L224.58046,350.598851 L223.132184,348.757471 C220.071264,344.867816 214.928736,343.777011 210.985057,346.181609 M240.529885,371.562069 L240.529885,397.567816 L244.690805,397.567816 L248.851724,397.567816 L248.851724,371.562069 L248.851724,345.557471 L244.690805,345.557471 L240.529885,345.557471 L240.529885,371.562069 M256.47931,371.562069 L256.47931,397.567816 L260.64023,397.567816 L264.801149,397.567816 L264.801149,378.601149 C264.801149,355.509195 265.201149,353.87931 270.864368,353.87931 C275.996552,353.87931 276.491954,356.163218 276.549425,380.057471 L276.589655,397.567816 L280.794253,397.567816 L284.997701,397.567816 L284.781609,374.856322 C284.571264,352.774713 284.521839,352.077011 283.021839,349.664368 C279.890805,344.629885 272.255172,343.83908 267.577011,348.065517 L264.801149,350.573563 L264.801149,348.065517 L264.801149,345.557471 L260.64023,345.557471 L256.47931,345.557471 L256.47931,371.562069 M73.191954,354.224138 C80.6022989,359.414943 78.1770115,389.93908 70.354023,389.93908 C65.3712644,389.93908 63.4563218,384.837931 63.4563218,371.562069 C63.4563218,356.558621 67.1448276,349.989655 73.191954,354.224138 M221.770115,355.229885 C227.642529,361.102299 225.229885,389.93908 218.865517,389.93908 C214.193103,389.93908 212.672414,386.427586 212.264368,374.696552 C211.670115,357.588506 215.757471,349.217241 221.770115,355.229885 M19.2896552,363.414943 C22.5206897,365.044828 24.1310345,368.088506 24.5701149,373.393103 C25.3781609,383.144828 22.5896552,387.237931 14.7977011,387.734483 L10.2977011,388.02069 L10.2977011,375.110345 L10.2977011,362.201149 L13.591954,362.202299 C15.4034483,362.202299 17.9678161,362.748276 19.2896552,363.414943" id="path2"></path>
        </g>
    </g>
</svg>