<?xml version="1.0" encoding="UTF-8"?>
<svg width="1157px" height="300px" viewBox="0 0 1157 300" version="1.1" xmlns="http://www.w3.org/2000/svg" xmlns:xlink="http://www.w3.org/1999/xlink">
    <!-- Generator: Sketch 45.2 (43514) - http://www.bohemiancoding.com/sketch -->
    <title>path2995</title>
    <desc>Created with Sketch.</desc>
    <defs></defs>
    <g id="Page-1" stroke="none" stroke-width="1" fill="none" fill-rule="evenodd">
        <path d="M330.356636,297.589786 C345.155792,294.135163 356.952887,288.861156 367.498558,280.9851 C393.148474,261.828431 407.203547,232.4549 408.50136,195.293829 C409.780775,158.65945 398.732333,127.430771 377.368345,107.29564 C360.02619,90.9510133 338.172334,83.1163999 309.92283,83.1163999 C279.977153,83.1163999 255.860748,92.4012215 237.30686,111.073551 C217.432372,131.074911 206.919763,158.976808 206.919763,191.725027 C206.919763,225.697449 216.417546,253.122061 234.837289,272.336153 C244.992891,282.929731 254.878783,289.282818 269.055216,294.32604 C274.067429,296.109128 277.755431,296.965229 291.157089,299.456602 C292.303884,299.669789 299.997838,299.709314 308.254764,299.544442 C319.43269,299.32123 325.078175,298.821953 330.356636,297.589786 L330.356636,297.589786 Z M298.711309,285.736969 C285.011334,279.522006 275.296576,260.631877 270.427759,230.740229 C267.341295,211.791184 267.049801,169.652646 269.862351,149.005001 C273.812006,120.009596 282.15528,102.879202 295.146076,97.0925233 C304.050562,93.1260711 316.390863,95.4726478 324.325561,102.641169 C341.947726,118.56174 350.842195,163.832873 347.004651,218.073445 C344.250891,256.995727 335.803822,278.105951 320.047622,285.44228 C314.33574,288.101828 304.231898,288.24137 298.711309,285.736969 L298.711309,285.736969 Z M691.909912,298.704254 C717.245856,294.904384 735.829744,286.203877 751.568096,270.773809 C774.317603,248.469909 785.275061,216.991604 783.793977,178.196154 C783.031437,158.222141 779.769284,145.174555 771.491024,128.988211 C760.275966,107.059592 741.09456,91.6780065 719.315367,87.1485154 C702.97833,83.7508488 681.958173,86.412081 665.976292,93.9014382 C661.993426,95.7678788 658.18087,97.2949597 657.503952,97.2949597 C656.42945,97.2949597 656.313019,91.1188792 656.586866,48.6474811 L656.900537,0 L653.554405,0.670737623 C651.714028,1.03964707 632.943784,4.53703072 611.842751,8.44269851 C590.741717,12.3483663 572.654204,15.7369003 571.648268,15.9727815 C570.119327,16.3312989 569.851436,16.9140627 570.015173,19.5253364 C570.197651,22.4354358 570.436752,22.6986816 573.512207,23.3754076 C584.085109,25.7019007 585.967638,26.5309378 589.89881,30.5918608 C594.714625,35.5666087 596.889883,41.919179 598.317063,55.1762992 C599.454317,65.7403105 599.706487,247.745084 598.621093,274.609785 L597.977512,290.539247 L606.578193,292.378457 C639.145052,299.34269 671.607515,301.749192 691.909912,298.704254 L691.909912,298.704254 Z M662.156713,286.016654 C660.471433,285.838796 658.66827,285.182028 658.149685,284.557171 C656.720094,282.834618 655.171604,169.617058 656.12462,136.494507 L656.880529,110.22247 L663.552792,108.298898 C673.396875,105.460909 683.994697,105.902046 691.507816,109.462533 C706.595764,116.612747 716.507678,134.275213 721.655279,163.183561 C723.332036,172.600043 723.084261,205.305786 721.247996,216.943723 C717.413746,241.244515 710.436961,260.000131 700.724514,272.116786 C696.016156,277.990655 688.196964,283.546415 682.083136,285.362029 C678.138602,286.533429 669.684953,286.811145 662.156713,286.016654 L662.156713,286.016654 Z M921.663065,298.677015 C940.988192,295.543003 960.018238,286.267589 973.69546,273.316042 C981.187411,266.221541 983.672079,262.797944 982.630288,261.004615 C979.85004,256.218734 979.970224,256.223905 972.871352,260.584738 C961.568788,267.527853 955.903286,269.442134 942.623814,270.80486 C927.112469,272.396637 912.804718,269.804163 899.584128,263.006352 C890.813855,258.496828 880.303622,248.124661 875.050633,238.795302 C867.88212,226.063839 863.99244,211.191973 862.832384,192.080258 C862.345309,184.055394 862.450897,182.056008 863.393521,181.459108 C864.035977,181.052275 891.846388,180.718086 925.647657,180.711022 L986.740569,180.698261 L986.740569,178.284528 C986.740569,172.79906 984.939976,158.054309 983.326039,150.323799 C976.836595,119.240043 959.703307,97.075559 935.272564,88.1594301 C925.548574,84.6106366 916.349691,83.1164082 904.226105,83.1164082 C875.50026,83.1164082 852.039581,92.5389036 833.891107,111.365012 C819.421453,126.375002 810.836335,143.236705 805.596857,166.936718 C804.017699,174.079651 803.752977,177.791581 803.752977,192.791739 C803.752977,207.680886 804.023037,211.520891 805.554155,218.407951 C815.279729,262.152978 844.058469,290.960717 885.405568,298.339982 C895.883941,300.210076 911.324893,300.353613 921.663065,298.677023 L921.663065,298.677015 Z M863.008615,166.717033 C862.381089,165.701698 863.937894,150.856196 865.47827,143.166771 C869.190967,124.632649 875.135537,111.248689 883.315482,103.007084 C887.715506,98.5739242 889.72319,97.1919483 893.311617,96.1263128 C895.781188,95.3929143 898.578118,94.7949544 899.526997,94.7975148 C903.354041,94.8078568 907.869828,96.7606115 911.230814,99.8586268 C920.251714,108.173843 925.413294,126.030096 926.436069,152.460834 L926.940992,165.508044 L918.266716,165.991408 C900.855611,166.96163 863.463246,167.452651 863.008615,166.717033 L863.008615,166.717033 Z M1090.99469,298.751803 C1126.42999,293.370188 1149.30843,274.368766 1155.3098,245.335805 C1158.20765,231.316462 1156.85526,215.727035 1151.83689,205.302224 C1144.81083,190.706923 1132.93053,181.895399 1103.50518,169.45498 C1081.65085,160.215438 1068.55044,152.383118 1063.18536,145.349118 C1058.75306,139.538119 1057.31218,135.070079 1057.37132,127.320145 C1057.46056,115.630907 1061.89161,106.678114 1070.35054,101.09594 C1077.43273,96.4223361 1086.30742,95.2821547 1096.64042,97.7183482 C1109.12748,100.662426 1118.51761,108.326471 1126.99789,122.495532 C1129.69657,127.004556 1135.24514,139.662365 1137.94699,147.47335 C1138.36617,148.68525 1138.84883,148.736226 1141.76152,147.876221 C1143.59556,147.334692 1145.35378,146.633929 1145.6688,146.318982 C1145.98373,146.004026 1145.96304,134.055929 1145.62293,119.767668 L1145.00424,93.7890022 L1141.97803,92.5076524 C1136.87117,90.345397 1123.54282,86.719614 1114.76479,85.1047428 C1108.15917,83.8895234 1102.34796,83.5748762 1086.82469,83.5919488 C1068.29573,83.6122992 1066.78271,83.7334842 1059.12996,85.809659 C1036.90064,91.8404678 1020.41957,104.385199 1011.80718,121.830015 C1007.23001,131.10125 1005.64835,138.24762 1005.70039,149.422018 C1005.77378,165.288026 1010.09791,176.999842 1019.65902,187.232542 C1027.88575,196.037161 1038.58114,202.318847 1056.7995,209.046206 C1071.13578,214.340039 1085.93503,221.731547 1091.54398,226.399429 C1094.84058,229.14283 1097.43067,232.268302 1099.36229,235.833784 C1102.10926,240.904088 1102.25104,241.574767 1102.25263,249.50597 C1102.25263,257.146954 1102.03228,258.314909 1099.60674,263.434912 C1093.26934,276.812258 1080.59129,283.454054 1063.98536,282.096215 C1041.42085,280.251159 1025.53603,265.329568 1012.60268,233.829195 C1009.2291,225.612694 1008.99807,225.442393 1003.86944,227.392295 L1001.51521,228.287379 L1002.10412,257.66242 C1002.62681,283.733305 1002.85042,287.158094 1004.09171,288.110009 C1007.80023,290.953903 1031.80579,296.651566 1048.45917,298.640543 C1061.38668,300.184521 1081.21949,300.236398 1090.99485,298.751803 L1090.99469,298.751803 Z M149.371491,289.53955 C149.371491,287.016601 149.146118,284.952369 148.87067,284.952369 C144.896704,284.952369 126.378279,280.959186 123.401498,279.460371 C112.810848,274.127973 107.915041,261.453149 106.015365,234.449156 C104.664965,215.253188 103.32118,158.858283 104.193386,157.986077 C104.984275,157.195188 140.24637,158.600258 144.367293,159.586861 C155.761826,162.314866 164.54461,173.523384 168.942332,190.94931 L170.880666,198.629961 L175.972704,198.878269 L181.064742,199.126569 L181.064742,150.712867 L181.064742,102.299157 L175.643528,102.299157 C170.575285,102.299157 170.222314,102.42151 170.222314,104.178384 C170.222314,107.338518 167.058727,117.338389 164.063948,123.644537 C159.37343,133.521439 152.767489,139.483106 144.367293,141.420181 C142.303061,141.896188 132.55903,142.65862 122.713888,143.114477 C108.828416,143.7574 104.662213,143.715915 104.138507,142.929505 C103.170562,141.476003 105.376921,31.6661453 106.476593,26.5637487 L106.891141,24.6402602 L137.514186,24.8956828 L168.137231,25.1511137 L175.263351,27.7031878 C191.769288,33.6144629 203.64625,45.6856384 213.56924,66.6354613 C215.798585,71.342151 218.656016,78.1956081 219.919067,81.8653505 C221.182118,85.5350954 222.29978,88.6543035 222.40275,88.7969231 C222.505728,88.9395428 225.245284,88.2496975 228.490665,87.2639456 L234.391356,85.4716672 L233.976433,58.2305111 C233.748225,43.2478685 233.344987,25.2657933 233.08034,18.2703421 L232.599161,5.55133987 L116.299583,5.55133987 L0,5.55133987 L0.248306616,10.7603593 L0.496612398,15.9693786 L8.00290877,16.9082328 C18.016374,18.1606751 21.6879238,19.2515901 25.7201394,22.1725152 C31.8324306,26.6002293 35.5914654,33.104727 37.9585526,43.349387 C41.6360623,59.2655627 42.9596392,95.1595185 42.3466417,162.349528 C41.6989234,233.34448 40.8035223,248.110182 36.2774642,262.43348 C32.5550084,274.213686 25.6267769,280.458458 14.1830111,282.348351 C11.0334308,282.868496 6.57169742,283.698284 4.26804843,284.192332 L0.0795959327,285.090593 L0.0795959327,289.608658 L0.0795959327,294.126731 L74.7255432,294.126731 L149.371491,294.126731 L149.371491,289.53955 L149.371491,289.53955 Z M533.860672,289.61071 L533.860672,285.094688 L527.396916,284.548856 C512.488494,283.289916 508.404093,281.793336 504.488884,276.155015 C498.8153,267.984436 497.580239,252.907214 497.580239,191.816354 L497.580239,144.135142 L499.647807,141.934337 C502.25662,139.157416 510.411777,135.282633 516.178523,134.080049 C527.88817,131.638159 542.857994,133.74767 554.565522,139.489461 C557.925624,141.137377 560.815582,142.34489 560.987651,142.172821 C561.33249,141.827981 580.561853,91.0127318 581.158587,88.8693839 C581.429398,87.8967014 580.321485,87.0492405 577.086914,85.7548964 C570.16419,82.9846894 564.160621,82.0347092 556.416517,82.4840862 C535.702725,83.6860778 517.319839,97.4473209 504.078848,121.663534 C501.880763,125.683564 499.60412,128.976176 499.01963,128.980446 C498.170509,128.986284 498.071693,124.368378 498.527967,106.002814 L499.099021,83.0174252 L497.088577,83.4914228 C495.982841,83.7521248 479.314918,87.1289073 460.048757,90.9953839 C418.72803,99.2879315 412.984546,100.496403 411.999261,101.105339 C411.591477,101.357367 411.257831,102.847868 411.257831,104.417568 C411.257831,107.566934 410.889914,107.384356 420.279115,108.894373 C433.18534,110.970031 437.744206,117.263184 439.668912,135.660475 C442.178442,159.64772 441.175634,253.157324 438.271957,265.923816 C436.787362,272.451066 432.951219,278.737731 429.089738,280.971622 C427.658688,281.799491 423.15491,283.127664 419.081343,283.923114 L411.674847,285.369386 L411.422752,289.748058 L411.170658,294.126731 L472.515665,294.126731 L533.860672,294.126731 L533.860672,289.61071 L533.860672,289.61071 Z" id="path2995" fill="#BDC4CC" fill-rule="nonzero"></path>
    </g>
</svg>